<svg xmlns="http://www.w3.org/2000/svg" version="1.1" xmlns:xlink="http://www.w3.org/1999/xlink"
    xmlns:svgjs="http://svgjs.com/svgjs" width="512" height="512" x="0" y="0"
    viewBox="0 0 491.5 491.5" style="enable-background:new 0 0 512 512" xml:space="preserve"
    class=""><g><linearGradient id="SVGID_1_" gradientUnits="userSpaceOnUse" x1="242.05" x2="242.05" y1="59.1" y2="439.8"><stop offset="0" stop-color="#f704fe"></stop><stop offset="1" stop-color="#24bce3"></stop></linearGradient><path d="m200.2 286.8-62.1-62.2-28 27.9 90.1 90.1 255.6-255.6-27.9-27.9zm137.2-47.5c1.3 8.5 2.3 16.4 2.3 25.1 0 75-61 135.9-135.9 135.9-75 0-135.9-61-135.9-135.9 0-75 61-135.9 135.9-135.9 34.6 0 61.5 11.6 88.4 32.5l28-28c-35-28.3-70.6-43.9-116.4-43.9-96.8-.1-175.5 78.6-175.5 175.3s78.7 175.4 175.4 175.4 175.4-78.7 175.4-175.4c0-21.2-3.8-37.6-9.2-57.6z" fill="url(#SVGID_1_)" data-original="url(#SVGID_1_)"></path></g></svg>