<!--?xml version="1.0" standalone="no"?-->
              <svg id="sw-js-blob-svg" viewBox="0 0 100 100" xmlns="http://www.w3.org/2000/svg" version="1.1">
                    <defs> 
                        <linearGradient id="sw-gradient" x1="0" x2="1" y1="1" y2="0">
                            <stop id="stop1" stop-color="rgba(234, 4, 126, 1)" offset="0%"></stop>
                            <stop id="stop2" stop-color="rgba(251, 168, 31, 1)" offset="100%"></stop>
                        </linearGradient>
                    </defs>
                <path fill="url(#sw-gradient)" d="M16.9,-16.1C24.6,-13.7,35.3,-10.9,39.4,-4.5C43.5,1.9,40.8,12,34.9,18.2C29,24.5,19.8,26.9,11.8,27.7C3.8,28.6,-3.1,27.9,-11.9,27.1C-20.7,26.3,-31.4,25.3,-35.3,19.8C-39.1,14.3,-36.1,4.2,-33.4,-5C-30.7,-14.1,-28.2,-22.4,-22.7,-25.2C-17.2,-28,-8.6,-25.3,-2,-23C4.6,-20.6,9.2,-18.5,16.9,-16.1Z" width="100%" height="100%" transform="translate(50 50)" stroke-width="0" style="transition: all 0.3s ease 0s;"></path>
              </svg>